<?xml version="1.0" encoding="utf-8"?>

<!-- The icon can be used freely in both personal and commercial projects with no attribution required, but always appreciated. 
You may NOT sub-license, resell, rent, redistribute or otherwise transfer the icon without express written permission from iconmonstr.com -->

<!DOCTYPE svg PUBLIC "-//W3C//DTD SVG 1.1//EN" "http://www.w3.org/Graphics/SVG/1.1/DTD/svg11.dtd">
<svg version="1.1" xmlns="http://www.w3.org/2000/svg" xmlns:xlink="http://www.w3.org/1999/xlink" x="0px" y="0px"
	 width="512px" height="512px" viewBox="0 0 512 512" enable-background="new 0 0 512 512" xml:space="preserve">
<path id="trash-can-icon" d="M424.562,78.022v40.032H87.438V78.022h94.938c15.464,0,28-12.546,28-28.022h91.25
	c0,15.477,12.536,28.022,28,28.022H424.562z M406.334,148.079V462H105.666V148.079H406.334z M197.333,210.462
	c0-8.291-6.716-15.012-15-15.012s-15,6.721-15,15.012v190.153c0,8.291,6.716,15.012,15,15.012s15-6.721,15-15.012V210.462z
	 M271,210.462c0-8.291-6.716-15.012-15-15.012s-15,6.721-15,15.012v190.153c0,8.291,6.716,15.012,15,15.012s15-6.721,15-15.012
	V210.462z M344.667,210.462c0-8.291-6.716-15.012-15-15.012s-15,6.721-15,15.012v190.153c0,8.291,6.716,15.012,15,15.012
	s15-6.721,15-15.012V210.462z"/>
</svg>
