<?xml version="1.0" encoding="utf-8"?>


<!-- The icon can be used freely in both personal and commercial projects with no attribution required, but always appreciated. 
You may NOT sub-license, resell, rent, redistribute or otherwise transfer the icon without express written permission from iconmonstr.com -->


<!DOCTYPE svg PUBLIC "-//W3C//DTD SVG 1.1//EN" "http://www.w3.org/Graphics/SVG/1.1/DTD/svg11.dtd">

<svg version="1.1" xmlns="http://www.w3.org/2000/svg" xmlns:xlink="http://www.w3.org/1999/xlink" x="0px" y="0px"

	 width="512px" height="512px" viewBox="0 0 512 512" enable-background="new 0 0 512 512" xml:space="preserve">

<path id="eye-4-icon" d="M256.493,376.142c-83.275,0-158.964-57.281-206.493-126.949c47.955-67.221,123.635-113.334,206.493-113.334

	c83.032,0,158.965,45.31,205.507,112.907C417.87,322.31,342.331,376.142,256.493,376.142z M93.602,249.773

	c39.783,49.138,98.528,91.363,162.892,91.363c87.675,0,144.426-65.7,163.013-90.981c-39.54-46.52-97.718-79.292-163.013-79.292

	C171.679,170.863,113.876,226.686,93.602,249.773z M258.309,186.631c38.312,0,69.369,31.058,69.369,69.369

	s-31.058,69.368-69.369,69.368S188.939,294.312,188.939,256S219.997,186.631,258.309,186.631z M232.056,256

	c0,14.5,11.754,26.254,26.253,26.254c14.5,0,26.254-11.754,26.254-26.254c0-14.499-11.754-26.253-26.254-26.253

	C243.81,229.747,232.056,241.501,232.056,256z"/>

</svg>

